<svg width="32" height="32" viewBox="0 0 32 32" fill="none" xmlns="http://www.w3.org/2000/svg">
<g clip-path="url(#clip0_49_115)">
<path d="M31.4885 14.7565L19.9322 3.19992C19.6023 2.87004 19.1626 2.68896 18.6938 2.68896C18.2245 2.68896 17.7851 2.8703 17.4552 3.19992L16.406 4.24941C16.0764 4.57877 15.8948 5.0187 15.8948 5.48777C15.8948 5.95658 16.0764 6.41134 16.406 6.7407L23.1478 13.4973H1.72877C0.763051 13.4973 0 14.2534 0 15.2193V16.703C0 17.669 0.763051 18.5013 1.72877 18.5013H23.2243L16.4062 25.2956C16.0766 25.6255 15.895 26.0535 15.895 26.5225C15.895 26.9911 16.0766 27.4253 16.4062 27.7549L17.4555 28.801C17.7854 29.1309 18.2248 29.3107 18.6941 29.3107C19.1629 29.3107 19.6026 29.1286 19.9325 28.7987L31.4888 17.2423C31.8195 16.9114 32.0013 16.4697 32 16.0001C32.001 15.5289 31.8195 15.0869 31.4885 14.7565Z" fill="white"/>
</g>
<defs>
<clipPath id="clip0_49_115">
<rect width="32" height="32" fill="white"/>
</clipPath>
</defs>
</svg>
