<svg width="1440" height="2568" viewBox="0 0 1440 2568" fill="none" xmlns="http://www.w3.org/2000/svg">
<g opacity="0.25" clip-path="url(#clip0_817_331)">
<path d="M-269.867 1024.48C-241.106 1186.34 -80.9069 1301.81 82.4317 1319.85C245.77 1337.88 408.342 1276.24 549.761 1192.55C691.179 1108.86 818.317 1002.79 959.488 918.721C1100.66 834.647 1262.72 772.073 1426.21 788.717C1624.48 808.917 1791.43 939.99 1975.67 1016.1C2266.06 1136.11 2611.74 1112.85 2883.35 954.999C3023.37 873.646 3154.52 728.427 3124.97 569.09" stroke="white" stroke-width="0.85" stroke-linecap="round" stroke-linejoin="round"/>
<path d="M-291.7 990.875C-262.939 1152.73 -102.74 1268.21 60.5987 1286.24C223.937 1304.28 386.509 1242.64 527.928 1158.95C669.346 1075.26 796.484 969.19 937.655 885.117C1078.83 801.043 1240.89 738.469 1404.38 755.113C1602.65 775.313 1769.6 906.386 1953.84 982.496C2244.23 1102.51 2589.91 1079.25 2861.52 921.395C3001.54 840.042 3132.69 694.823 3103.13 535.486" stroke="white" stroke-width="0.85" stroke-linecap="round" stroke-linejoin="round"/>
<path d="M-313.572 957.283C-284.811 1119.14 -124.612 1234.62 38.7269 1252.65C202.066 1270.69 364.637 1209.04 506.056 1125.35C647.474 1041.67 774.612 935.598 915.783 851.525C1056.95 767.451 1219.02 704.877 1382.5 721.521C1580.78 741.721 1747.73 872.794 1931.96 948.904C2222.35 1068.92 2568.03 1045.65 2839.65 887.803C2979.67 806.45 3110.82 661.231 3081.26 501.894" stroke="white" stroke-width="0.85" stroke-linecap="round" stroke-linejoin="round"/>
<path d="M-335.443 923.691C-306.682 1085.55 -146.483 1201.02 16.8555 1219.06C180.194 1237.09 342.766 1175.45 484.184 1091.76C625.603 1008.07 752.741 902.006 893.912 817.933C1035.08 733.859 1197.15 671.285 1360.63 687.929C1558.91 708.13 1725.86 839.202 1910.09 915.312C2200.48 1035.33 2546.16 1012.06 2817.78 854.211C2957.79 772.858 3088.95 627.639 3059.39 468.302" stroke="white" stroke-width="0.85" stroke-linecap="round" stroke-linejoin="round"/>
</g>
<defs>
<clipPath id="clip0_817_331">
<rect width="3604" height="1725" fill="white" transform="matrix(-0.953223 0.302267 0.302267 0.953223 3095.42 -166)"/>
</clipPath>
</defs>
</svg>
