<svg width="48" height="48" viewBox="0 0 48 48" fill="none" xmlns="http://www.w3.org/2000/svg">
<path d="M19.392 26.4961C19.248 26.4961 16.08 26.4961 14.64 26.4961C13.872 26.4961 13.632 26.2081 13.632 25.4881C13.632 23.5681 13.632 21.6001 13.632 19.6801C13.632 18.9121 13.92 18.6721 14.64 18.6721H19.392C19.392 18.5281 19.392 15.7441 19.392 14.4481C19.392 12.5281 19.728 10.7041 20.688 9.02414C21.696 7.29614 23.136 6.14414 24.96 5.47214C26.16 5.04014 27.36 4.84814 28.656 4.84814H33.36C34.032 4.84814 34.32 5.13614 34.32 5.80814V11.2801C34.32 11.9521 34.032 12.2401 33.36 12.2401C32.064 12.2401 30.768 12.2401 29.472 12.2881C28.176 12.2881 27.504 12.9121 27.504 14.2561C27.456 15.6961 27.504 17.0881 27.504 18.5761H33.072C33.84 18.5761 34.128 18.8641 34.128 19.6321V25.4401C34.128 26.2081 33.888 26.4481 33.072 26.4481C31.344 26.4481 27.648 26.4481 27.504 26.4481V42.0961C27.504 42.9121 27.264 43.2001 26.4 43.2001C24.384 43.2001 22.416 43.2001 20.4 43.2001C19.68 43.2001 19.392 42.9121 19.392 42.1921C19.392 37.1521 19.392 26.6401 19.392 26.4961Z" fill="white"/>
</svg>
