<svg width="1920" height="1990" viewBox="0 0 1920 1990" fill="none" xmlns="http://www.w3.org/2000/svg">
<g opacity="0.25" clip-path="url(#clip0_49_44)">
<path d="M-1244.87 1190.48C-1216.11 1352.34 -1055.91 1467.81 -892.569 1485.85C-729.23 1503.88 -566.659 1442.24 -425.24 1358.55C-283.821 1274.86 -156.683 1168.79 -15.5124 1084.72C125.659 1000.65 287.724 938.074 451.21 954.717C649.482 974.918 816.434 1105.99 1000.67 1182.1C1291.06 1302.11 1636.74 1278.85 1908.35 1121C2048.37 1039.65 2179.52 894.428 2149.97 735.09" stroke="white" stroke-width="0.85" stroke-linecap="round" stroke-linejoin="round"/>
<path d="M-1266.7 1156.87C-1237.94 1318.73 -1077.74 1434.21 -914.402 1452.24C-751.063 1470.28 -588.492 1408.64 -447.073 1324.95C-305.654 1241.26 -178.517 1135.19 -37.346 1051.12C103.825 967.043 265.891 904.469 429.376 921.113C627.648 941.313 794.601 1072.39 978.835 1148.5C1269.23 1268.51 1614.91 1245.25 1886.52 1087.4C2026.54 1006.04 2157.69 860.823 2128.13 701.486" stroke="white" stroke-width="0.85" stroke-linecap="round" stroke-linejoin="round"/>
<path d="M-1288.57 1123.28C-1259.81 1285.14 -1099.61 1400.62 -936.273 1418.65C-772.934 1436.69 -610.363 1375.04 -468.944 1291.36C-327.526 1207.67 -200.388 1101.6 -59.2172 1017.52C81.9538 933.451 244.019 870.878 407.505 887.521C605.777 907.722 772.73 1038.79 956.963 1114.9C1247.35 1234.92 1593.03 1211.65 1864.65 1053.8C2004.67 972.45 2135.82 827.231 2106.26 667.894" stroke="white" stroke-width="0.85" stroke-linecap="round" stroke-linejoin="round"/>
<path d="M-1310.44 1089.69C-1281.68 1251.55 -1121.48 1367.02 -958.145 1385.06C-794.806 1403.09 -632.235 1341.45 -490.816 1257.76C-349.397 1174.07 -222.26 1068.01 -81.0888 983.933C60.0822 899.86 222.148 837.286 385.633 853.929C583.905 874.13 750.858 1005.2 935.092 1081.31C1225.48 1201.33 1571.16 1178.06 1842.78 1020.21C1982.79 938.859 2113.95 793.639 2084.39 634.302" stroke="white" stroke-width="0.85" stroke-linecap="round" stroke-linejoin="round"/>
</g>
<defs>
<clipPath id="clip0_49_44">
<rect width="3604" height="1725" fill="white" transform="matrix(-0.953223 0.302267 0.302267 0.953223 2120.42 0)"/>
</clipPath>
</defs>
</svg>
