<svg width="43" height="42" viewBox="0 0 43 42" fill="none" xmlns="http://www.w3.org/2000/svg">
<g clip-path="url(#clip0_49_102)">
<path d="M32.25 0H10.75C4.83803 0 0 4.72346 0 10.5V31.5C0 37.2745 4.83803 42 10.75 42H32.25C38.162 42 43 37.2745 43 31.5V10.5C43 4.72346 38.162 0 32.25 0ZM21.5 29.7497C16.5517 29.7497 12.5415 25.831 12.5415 21C12.5415 16.1668 16.5517 12.2498 21.5 12.2498C26.4461 12.2498 30.4585 16.1668 30.4585 21C30.4585 25.831 26.4461 29.7497 21.5 29.7497ZM33.146 12.2498C31.6603 12.2498 30.4585 11.0743 30.4585 9.62483C30.4585 8.17534 31.6603 6.99983 33.146 6.99983C34.6317 6.99983 35.8335 8.17534 35.8335 9.62483C35.8335 11.0743 34.6317 12.2498 33.146 12.2498Z" fill="white"/>
</g>
<defs>
<clipPath id="clip0_49_102">
<rect width="43" height="42" fill="white"/>
</clipPath>
</defs>
</svg>
