<svg width="1208" height="650" viewBox="0 0 1208 650" fill="none" xmlns="http://www.w3.org/2000/svg">
<mask id="mask0_34_5" style="mask-type:alpha" maskUnits="userSpaceOnUse" x="0" y="0" width="1208" height="650">
<rect width="1208" height="650" rx="50" fill="#11112B"/>
</mask>
<g mask="url(#mask0_34_5)">
<rect width="1208" height="650" rx="50" fill="url(#paint0_linear_34_5)"/>
<g opacity="0.25">
<path d="M-1175.88 1555.19C-1112.35 1712.76 -934.318 1774.54 -775.097 1734.05C-615.877 1693.56 -475.208 1570.65 -359.568 1432.52C-243.928 1294.4 -146.862 1138.22 -31.5427 999.785C83.7762 861.349 223.756 737.654 382.805 695.667C575.699 644.761 763.638 720.286 955.7 732.5C1258.44 751.801 1581.67 602.348 1804.41 340.052C1919.24 204.859 2011.37 6.58989 1947.64 -148.076" stroke="white" stroke-width="0.85" stroke-linecap="round" stroke-linejoin="round"/>
<path d="M-1204.15 1528.28C-1140.62 1685.86 -962.592 1747.64 -803.371 1707.15C-644.151 1666.66 -503.482 1543.75 -387.842 1405.62C-272.202 1267.49 -175.136 1111.32 -59.8166 972.882C55.5023 834.446 195.482 710.751 354.531 668.764C547.425 617.858 735.364 693.383 927.426 705.597C1230.17 724.898 1553.39 575.445 1776.14 313.15C1890.97 177.956 1983.09 -20.3129 1919.37 -174.979" stroke="white" stroke-width="0.85" stroke-linecap="round" stroke-linejoin="round"/>
<path d="M-1232.45 1501.34C-1168.92 1658.92 -990.885 1720.7 -831.665 1680.21C-672.445 1639.72 -531.776 1516.81 -416.135 1378.68C-300.495 1240.56 -203.429 1084.38 -88.1101 945.944C27.2088 807.508 167.188 683.813 326.237 641.826C519.131 590.921 707.07 666.445 899.133 678.659C1201.87 697.96 1525.1 548.507 1747.85 286.212C1862.68 151.018 1954.8 -47.2509 1891.08 -201.917" stroke="white" stroke-width="0.85" stroke-linecap="round" stroke-linejoin="round"/>
<path d="M-1260.71 1474.38C-1197.18 1631.95 -1019.15 1693.74 -859.926 1653.25C-700.705 1612.76 -560.036 1489.85 -444.396 1351.72C-328.756 1213.59 -231.69 1057.42 -116.371 918.98C-1.05196 780.544 138.928 656.85 297.976 614.862C490.871 563.957 678.809 639.481 870.872 651.695C1173.61 670.996 1496.84 521.543 1719.59 259.248C1834.42 124.054 1926.54 -74.2147 1862.82 -228.881" stroke="white" stroke-width="0.85" stroke-linecap="round" stroke-linejoin="round"/>
<path d="M-1289 1447.44C-1225.47 1605.02 -1047.44 1666.8 -888.219 1626.31C-728.999 1585.82 -588.33 1462.91 -472.69 1324.78C-357.05 1186.65 -259.984 1030.48 -144.665 892.042C-29.3457 753.606 110.634 629.912 269.683 587.924C462.577 537.019 650.516 612.543 842.578 624.757C1145.32 644.058 1468.54 494.605 1691.29 232.31C1806.12 97.116 1898.25 -101.153 1834.52 -255.819" stroke="white" stroke-width="0.85" stroke-linecap="round" stroke-linejoin="round"/>
<path d="M-1317.28 1420.54C-1253.75 1578.11 -1075.71 1639.9 -916.493 1599.41C-757.273 1558.92 -616.604 1436.01 -500.964 1297.88C-385.323 1159.75 -288.257 1003.58 -172.938 865.14C-57.6194 726.704 82.3602 603.009 241.409 561.022C434.303 510.116 622.242 585.641 814.304 597.855C1117.05 617.156 1440.27 467.703 1663.02 205.407C1777.85 70.2137 1869.97 -128.055 1806.25 -282.721" stroke="white" stroke-width="0.85" stroke-linecap="round" stroke-linejoin="round"/>
<path d="M-1345.57 1393.6C-1282.04 1551.18 -1104.01 1612.96 -944.787 1572.47C-785.567 1531.98 -644.898 1409.07 -529.257 1270.94C-413.617 1132.81 -316.551 976.637 -201.232 838.202C-85.913 699.766 54.0666 576.071 213.115 534.084C406.01 483.178 593.948 558.703 786.011 570.917C1088.75 590.218 1411.98 440.765 1634.72 178.469C1749.56 43.2758 1841.68 -154.993 1777.96 -309.659" stroke="white" stroke-width="0.85" stroke-linecap="round" stroke-linejoin="round"/>
<path d="M-1373.83 1366.64C-1310.3 1524.21 -1132.27 1585.99 -973.047 1545.5C-813.827 1505.01 -673.158 1382.1 -557.518 1243.98C-441.877 1105.85 -344.811 949.673 -229.493 811.238C-114.174 672.802 25.8063 549.107 184.855 507.12C377.749 456.214 565.688 531.739 757.751 543.953C1060.49 563.254 1383.72 413.801 1606.46 151.505C1721.3 16.3118 1813.42 -181.957 1749.69 -336.623" stroke="white" stroke-width="0.85" stroke-linecap="round" stroke-linejoin="round"/>
<path d="M-1402.12 1339.7C-1338.59 1497.27 -1160.56 1559.06 -1001.34 1518.57C-842.121 1478.08 -701.452 1355.17 -585.811 1217.04C-470.171 1078.91 -373.105 922.735 -257.786 784.3C-142.467 645.864 -2.48767 522.17 156.561 480.182C349.455 429.277 537.394 504.801 729.456 517.015C1032.2 536.316 1355.42 386.863 1578.17 124.568C1693 -10.6261 1785.12 -208.895 1721.4 -363.561" stroke="white" stroke-width="0.85" stroke-linecap="round" stroke-linejoin="round"/>
<path d="M-1430.42 1312.76C-1366.89 1470.34 -1188.86 1532.12 -1029.63 1491.63C-870.415 1451.14 -729.746 1328.23 -614.105 1190.1C-498.465 1051.97 -401.399 895.798 -286.08 757.362C-170.761 618.927 -30.7814 495.232 128.267 453.244C321.162 402.339 509.1 477.863 701.163 490.077C1003.9 509.378 1327.13 359.926 1549.88 97.6301C1664.71 -37.5636 1756.83 -235.832 1693.11 -390.499" stroke="white" stroke-width="0.85" stroke-linecap="round" stroke-linejoin="round"/>
</g>
</g>
<defs>
<linearGradient id="paint0_linear_34_5" x1="-672.5" y1="-360.5" x2="1935.5" y2="1196.5" gradientUnits="userSpaceOnUse">
<stop stop-color="#1C75BC"/>
<stop offset="0.48" stop-color="#1C75BC" stop-opacity="0"/>
<stop offset="1" stop-color="#1C75BC"/>
</linearGradient>
</defs>
</svg>
