<svg width="16" height="16" viewBox="0 0 16 16" fill="none" xmlns="http://www.w3.org/2000/svg">
<g opacity="0.5" clip-path="url(#clip0_469_584)">
<path d="M15.1925 3.28948C14.6342 3.53439 14.0393 3.69673 13.419 3.77555C14.0571 3.39458 14.5441 2.7959 14.7731 2.0743C14.1782 2.429 13.5213 2.67954 12.8213 2.81936C12.2564 2.21787 11.4513 1.84534 10.573 1.84534C8.8689 1.84534 7.49701 3.22849 7.49701 4.92411C7.49701 5.16808 7.51766 5.40267 7.56833 5.62601C5.00941 5.5012 2.74514 4.27476 1.22405 2.40648C0.958491 2.86722 0.802723 3.39458 0.802723 3.96229C0.802723 5.02827 1.35167 5.9732 2.16992 6.52027C1.6754 6.51088 1.19027 6.36731 0.779264 6.14117C0.779264 6.15055 0.779264 6.16275 0.779264 6.17495C0.779264 7.6707 1.84618 8.91309 3.24528 9.1993C2.99474 9.2678 2.72168 9.30064 2.43829 9.30064C2.24124 9.30064 2.0423 9.28938 1.85557 9.24809C2.25437 10.467 3.38604 11.3632 4.73165 11.3923C3.68444 12.2114 2.35478 12.705 0.915327 12.705C0.662907 12.705 0.420809 12.6938 0.178711 12.6628C1.54215 13.542 3.15802 14.0441 4.90056 14.0441C10.5645 14.0441 13.6611 9.35225 13.6611 5.28538C13.6611 5.14932 13.6564 5.01795 13.6499 4.88751C14.2607 4.45399 14.774 3.91255 15.1925 3.28948Z" fill="white"/>
</g>
<defs>
<clipPath id="clip0_469_584">
<rect width="15.0138" height="15.0138" fill="white" transform="translate(0.182617 0.437744)"/>
</clipPath>
</defs>
</svg>
