<svg width="18" height="19" viewBox="0 0 18 19" fill="none" xmlns="http://www.w3.org/2000/svg">
<g opacity="0.5">
<path d="M7.35884 10.5538C7.30737 10.5538 6.1749 10.5538 5.66014 10.5538C5.3856 10.5538 5.2998 10.4423 5.2998 10.1635C5.2998 9.41994 5.2998 8.65781 5.2998 7.91427C5.2998 7.61685 5.40276 7.52391 5.66014 7.52391H7.35884C7.35884 7.46815 7.35884 6.39001 7.35884 5.88812C7.35884 5.14458 7.47895 4.43821 7.82213 3.78761C8.18246 3.11843 8.69722 2.6723 9.34925 2.41206C9.77821 2.24476 10.2072 2.17041 10.6705 2.17041H12.352C12.5922 2.17041 12.6952 2.28194 12.6952 2.54218V4.66128C12.6952 4.92151 12.5922 5.03305 12.352 5.03305C11.8887 5.03305 11.4254 5.03305 10.9622 5.05163C10.4989 5.05163 10.2587 5.29329 10.2587 5.81377C10.2415 6.37142 10.2587 6.91049 10.2587 7.48673H12.2491C12.5236 7.48673 12.6265 7.59827 12.6265 7.89568V10.1449C12.6265 10.4423 12.5408 10.5353 12.2491 10.5353C11.6313 10.5353 10.3101 10.5353 10.2587 10.5353V16.5951C10.2587 16.9111 10.1729 17.0227 9.86401 17.0227C9.14334 17.0227 8.43984 17.0227 7.71918 17.0227C7.4618 17.0227 7.35884 16.9111 7.35884 16.6323C7.35884 14.6805 7.35884 10.6096 7.35884 10.5538Z" fill="white"/>
</g>
</svg>
