<svg width="35" height="35" viewBox="0 0 35 35" fill="none" xmlns="http://www.w3.org/2000/svg">
<g clip-path="url(#clip0_469_589)">
<path d="M34.2454 16.3072L21.8522 3.91368C21.4984 3.55991 21.0269 3.36572 20.5241 3.36572C20.0208 3.36572 19.5496 3.56019 19.1958 3.91368L18.0706 5.03917C17.7171 5.39238 17.5224 5.86417 17.5224 6.36721C17.5224 6.86997 17.7171 7.35766 18.0706 7.71087L25.3006 14.9568H2.33052C1.29487 14.9568 0.476562 15.7676 0.476562 16.8035V18.3946C0.476562 19.4306 1.29487 20.3231 2.33052 20.3231H25.3826L18.0709 27.6095C17.7174 27.9632 17.5226 28.4222 17.5226 28.9252C17.5226 29.4277 17.7174 29.8933 18.0709 30.2468L19.1961 31.3687C19.5499 31.7225 20.0211 31.9153 20.5244 31.9153C21.0272 31.9153 21.4987 31.72 21.8524 31.3662L34.2456 18.973C34.6002 18.6181 34.7953 18.1444 34.7939 17.6408C34.795 17.1355 34.6002 16.6615 34.2454 16.3072Z" fill="white"/>
</g>
<defs>
<clipPath id="clip0_469_589">
<rect width="34.3173" height="34.3173" fill="white" transform="translate(0.477539 0.481934)"/>
</clipPath>
</defs>
</svg>
