<svg width="35" height="35" viewBox="0 0 35 35" fill="none" xmlns="http://www.w3.org/2000/svg">
<g opacity="0.25" clip-path="url(#clip0_469_593)">
<path d="M0.548588 16.3073L12.9418 3.9138C13.2956 3.56003 13.7671 3.36584 14.2698 3.36584C14.7731 3.36584 15.2444 3.56031 15.5981 3.9138L16.7233 5.03929C17.0768 5.3925 17.2716 5.86429 17.2716 6.36733C17.2716 6.87009 17.0768 7.35778 16.7233 7.71099L9.49334 14.9569H32.4634C33.4991 14.9569 34.3174 15.7677 34.3174 16.8036V18.3948C34.3174 19.4307 33.4991 20.3232 32.4634 20.3232H9.41131L16.7231 27.6096C17.0766 27.9633 17.2713 28.4223 17.2713 28.9253C17.2713 29.4278 17.0766 29.8935 16.7231 30.247L15.5979 31.3688C15.2441 31.7226 14.7729 31.9154 14.2695 31.9154C13.7668 31.9154 13.2953 31.7201 12.9415 31.3663L0.548306 18.9731C0.193699 18.6182 -0.0013237 18.1445 7.24792e-05 17.6409C-0.00104141 17.1356 0.193699 16.6616 0.548588 16.3073Z" fill="white"/>
</g>
<defs>
<clipPath id="clip0_469_593">
<rect width="34.3173" height="34.3173" fill="white" transform="matrix(-1 0 0 1 34.3174 0.481934)"/>
</clipPath>
</defs>
</svg>
