<svg width="21" height="21" viewBox="0 0 21 21" fill="none" xmlns="http://www.w3.org/2000/svg">
<g opacity="0.5" clip-path="url(#clip0_469_194)">
<path d="M10.2886 18.9982C10.0051 18.9982 9.73181 18.8955 9.51884 18.7089C8.71447 18.0056 7.93898 17.3446 7.25477 16.7616L7.25128 16.7586C5.24531 15.0491 3.51309 13.5729 2.30783 12.1186C0.960547 10.4929 0.333008 8.95146 0.333008 7.26754C0.333008 5.63147 0.89401 4.12209 1.91257 3.01725C2.94327 1.89935 4.35755 1.28366 5.89533 1.28366C7.04468 1.28366 8.09727 1.64703 9.02376 2.36359C9.49134 2.72528 9.91517 3.16795 10.2886 3.68429C10.6621 3.16795 11.0858 2.72528 11.5535 2.36359C12.48 1.64703 13.5326 1.28366 14.6819 1.28366C16.2196 1.28366 17.634 1.89935 18.6647 3.01725C19.6833 4.12209 20.2441 5.63147 20.2441 7.26754C20.2441 8.95146 19.6167 10.4929 18.2694 12.1185C17.0642 13.5729 15.3321 15.049 13.3265 16.7582C12.641 17.3422 11.8643 18.0042 11.0581 18.7092C10.8453 18.8955 10.5719 18.9982 10.2886 18.9982ZM5.89533 2.45002C4.6872 2.45002 3.57734 2.93219 2.76994 3.80779C1.95054 4.69662 1.49922 5.92526 1.49922 7.26754C1.49922 8.68379 2.02559 9.95041 3.20577 11.3744C4.34646 12.7509 6.04314 14.1967 8.00764 15.8709L8.01128 15.874C8.69807 16.4593 9.47661 17.1228 10.2869 17.8313C11.102 17.1215 11.8818 16.4569 12.5699 15.8706C14.5343 14.1964 16.2308 12.7509 17.3715 11.3744C18.5515 9.95041 19.0779 8.68379 19.0779 7.26754C19.0779 5.92526 18.6266 4.69662 17.8072 3.80779C16.9999 2.93219 15.8899 2.45002 14.6819 2.45002C13.7969 2.45002 12.9844 2.73136 12.2669 3.28613C11.6275 3.78075 11.1821 4.40601 10.921 4.84351C10.7867 5.06849 10.5503 5.20278 10.2886 5.20278C10.0268 5.20278 9.79045 5.06849 9.65616 4.84351C9.39518 4.40601 8.94978 3.78075 8.31024 3.28613C7.59277 2.73136 6.78021 2.45002 5.89533 2.45002Z" fill="white"/>
</g>
<defs>
<clipPath id="clip0_469_194">
<rect width="19.9111" height="19.9111" fill="white" transform="translate(0.333008 0.194733)"/>
</clipPath>
</defs>
</svg>
