<svg width="21" height="21" viewBox="0 0 21 21" fill="none" xmlns="http://www.w3.org/2000/svg">
<g clip-path="url(#clip0_469_261)">
<path d="M20.193 9.30996L13.0024 2.1192C12.7971 1.91394 12.5235 1.80127 12.2318 1.80127C11.9398 1.80127 11.6664 1.9141 11.4611 2.1192L10.8083 2.77221C10.6032 2.97715 10.4902 3.25088 10.4902 3.54275C10.4902 3.83445 10.6032 4.11741 10.8083 4.32235L15.0032 8.52648H1.67577C1.07488 8.52648 0.600098 8.99689 0.600098 9.59794V10.5211C0.600098 11.1222 1.07488 11.64 1.67577 11.64H15.0508L10.8084 15.8676C10.6033 16.0729 10.4903 16.3392 10.4903 16.631C10.4903 16.9226 10.6033 17.1928 10.8084 17.3979L11.4613 18.0488C11.6665 18.254 11.9399 18.3659 12.232 18.3659C12.5237 18.3659 12.7973 18.2526 13.0025 18.0473L20.1931 10.8567C20.3989 10.6508 20.512 10.3759 20.5112 10.0837C20.5119 9.79058 20.3989 9.51555 20.193 9.30996Z" fill="#144064"/>
</g>
<defs>
<clipPath id="clip0_469_261">
<rect width="19.9111" height="19.9111" fill="white" transform="translate(0.600098 0.128052)"/>
</clipPath>
</defs>
</svg>
