<svg width="35" height="35" viewBox="0 0 35 35" fill="none" xmlns="http://www.w3.org/2000/svg">
<path d="M28.1945 9.35791C29.6243 10.9308 30.4823 12.6467 30.4823 15.5064C30.4823 20.511 26.9076 24.9437 21.903 27.2315L20.6161 25.3727C25.3347 22.7989 26.3356 19.5101 26.6216 17.3653C25.9066 17.7943 24.9057 17.9372 23.9048 17.7943C21.331 17.5083 19.3292 15.5064 19.3292 12.7896C19.3292 11.5027 19.9011 10.2158 20.759 9.21492C21.76 8.214 22.9039 7.78503 24.3338 7.78503C25.9066 7.78503 27.3365 8.49998 28.1945 9.35791ZM13.8956 9.35791C15.3255 10.9308 16.1834 12.6467 16.1834 15.5064C16.1834 20.511 12.6087 24.9437 7.60407 27.2315L6.31717 25.3727C11.0358 22.7989 12.0367 19.5101 12.3227 17.3653C11.6078 17.7943 10.6068 17.9372 9.60592 17.7943C7.03212 17.5083 5.03027 15.3634 5.03027 12.7896C5.03027 11.5027 5.60223 10.2158 6.46016 9.21492C7.46108 8.214 8.60499 7.78503 10.0349 7.78503C11.6078 7.78503 13.0376 8.49998 13.8956 9.35791Z" fill="white"/>
</svg>
