<svg width="18" height="19" viewBox="0 0 18 19" fill="none" xmlns="http://www.w3.org/2000/svg">
<g clip-path="url(#clip0_469_268)">
<path d="M16.969 16.8031L12.1157 11.9498C13.0558 10.7886 13.6218 9.313 13.6218 7.70592C13.6218 3.98115 10.5911 0.950417 6.86631 0.950417C3.14154 0.950417 0.11084 3.98112 0.11084 7.70588C0.11084 11.4306 3.14158 14.4614 6.86634 14.4614C8.47342 14.4614 9.94898 13.8954 11.1102 12.9553L15.9635 17.8086C16.1022 17.9472 16.2842 18.0169 16.4662 18.0169C16.6483 18.0169 16.8303 17.9472 16.969 17.8086C17.247 17.5305 17.247 17.0811 16.969 16.8031ZM6.86634 13.0392C3.9252 13.0392 1.53306 10.647 1.53306 7.70588C1.53306 4.76475 3.9252 2.3726 6.86634 2.3726C9.80748 2.3726 12.1996 4.76475 12.1996 7.70588C12.1996 10.647 9.80745 13.0392 6.86634 13.0392Z" fill="white"/>
</g>
<defs>
<clipPath id="clip0_469_268">
<rect width="17.0667" height="17.0667" fill="white" transform="translate(0.11084 0.95031)"/>
</clipPath>
</defs>
</svg>
